<svg xmlns="http://www.w3.org/2000/svg" width="17.857" height="17.857" viewBox="0 0 17.857 17.857">
  <g id="call_support" transform="translate(-2 -2)">
    <path id="Path_974" data-name="Path 974" d="M14.309,5.488A.768.768,0,0,0,14.017,7a3.091,3.091,0,0,1,2.45,2.455h0a.767.767,0,0,0,.75.621.832.832,0,0,0,.148-.013.772.772,0,0,0,.6-.9A4.62,4.62,0,0,0,14.309,5.488Z" transform="translate(-1.221 -0.372)" fill="#dfe7f2" opacity="0.4"/>
    <path id="Path_975" data-name="Path 975" d="M14.254,2.007a.73.73,0,0,0-.558.157.771.771,0,0,0,.388,1.37,6.172,6.172,0,0,1,5.47,5.481.765.765,0,0,0,.759.683.714.714,0,0,0,.087-.005.757.757,0,0,0,.513-.284.764.764,0,0,0,.162-.565A7.693,7.693,0,0,0,14.254,2.007Z" transform="translate(-1.222 0)" fill="#dfe7f2" opacity="0.4"/>
    <path id="Path_976" data-name="Path 976" d="M15.933,13.4a1.974,1.974,0,0,0-1.442.378c-.415.241-1.206.879-1.658.715A10.262,10.262,0,0,1,7.393,9.2c-.166-.461.471-1.253.71-1.67a2,2,0,0,0,.377-1.446A11.764,11.764,0,0,0,6.473,3.3a1.659,1.659,0,0,0-1.007-.527C4.172,2.72,2.728,4.439,2.474,4.85A3.328,3.328,0,0,0,2.485,8.31c1.547,3.8,7.4,9.537,11.23,11.136a4.642,4.642,0,0,0,1.934.494,2.523,2.523,0,0,0,1.509-.471c.327-.188,2.125-1.7,2.077-3.022a1.657,1.657,0,0,0-.523-1A11.937,11.937,0,0,0,15.933,13.4Z" transform="translate(0 -0.083)" fill="#fff"/>
  </g>
</svg>
