<svg xmlns="http://www.w3.org/2000/svg" width="18" height="19" viewBox="0 0 18 19">
  <path id="home_icon" d="M19.4,7.377A2.851,2.851,0,0,1,20.491,9.4l.009.191v7.7A3.718,3.718,0,0,1,16.976,21H15.091a1.737,1.737,0,0,1-1.7-1.6l-.009-.134V16.545a.6.6,0,0,0-.512-.59l-.085-.009h-2.53a.6.6,0,0,0-.586.513l-.009.086v2.708a1.037,1.037,0,0,1-.019.17l-.009.02-.01.066a1.728,1.728,0,0,1-1.6,1.483L7.9,21H6.2a3.714,3.714,0,0,1-3.7-3.515V9.591a2.823,2.823,0,0,1,.947-2.082l5.9-4.76a3.434,3.434,0,0,1,4.13-.114l.153.114Zm-.227,10.07.01-.152V9.6a1.541,1.541,0,0,0-.474-1.073l-.123-.105L12.808,3.785a2.132,2.132,0,0,0-2.5-.1l-.143.1L4.4,8.441a1.473,1.473,0,0,0-.577,1.006l-.01.152v7.7A2.38,2.38,0,0,0,6.053,19.67H7.9a.409.409,0,0,0,.416-.341l.02-.171.009-.048V16.545a1.919,1.919,0,0,1,1.772-1.92h2.672A1.919,1.919,0,0,1,14.7,16.4v2.859a.417.417,0,0,0,.332.409H16.8A2.371,2.371,0,0,0,19.173,17.447Z" transform="translate(-2.5 -2)" fill="#6b778c" fill-rule="evenodd"/>
</svg>
