<svg xmlns="http://www.w3.org/2000/svg" width="14.372" height="9.701" viewBox="0 0 14.372 9.701">
  <path id="mail_icon" d="M.072,12.91V4.927q0-.014.042-.263l4.7,4.019-4.684,4.5a1.175,1.175,0,0,1-.055-.277ZM.7,4.11a.6.6,0,0,1,.236-.042H13.584a.785.785,0,0,1,.249.042L9.122,8.142l-.624.5L7.265,9.653,6.031,8.641l-.624-.5Zm.014,9.618L5.435,9.2l1.829,1.483L9.094,9.2l4.726,4.532a.665.665,0,0,1-.236.042H.931a.628.628,0,0,1-.222-.042ZM9.718,8.683,14.4,4.664a.827.827,0,0,1,.042.263V12.91a1.062,1.062,0,0,1-.042.277Z" transform="translate(-0.072 -4.068)" fill="#fff"/>
</svg>
