<svg xmlns="http://www.w3.org/2000/svg" width="19.314" height="19.313" viewBox="0 0 19.314 19.313">
  <path id="messenger_dashboard" d="M10.241.563A9.331,9.331,0,0,0,.563,9.93,9.155,9.155,0,0,0,3.6,16.859c.325.292.258.462.313,2.267A.776.776,0,0,0,5,19.811c2.06-.907,2.087-.979,2.436-.884,5.969,1.643,12.439-2.177,12.439-9A9.294,9.294,0,0,0,10.241.563Zm5.811,7.209-2.843,4.5a1.455,1.455,0,0,1-2.1.387L8.849,10.966a.584.584,0,0,0-.7,0L5.1,13.28a.459.459,0,0,1-.666-.61l2.843-4.5a1.455,1.455,0,0,1,2.1-.387l2.261,1.692a.584.584,0,0,0,.7,0l3.053-2.312a.458.458,0,0,1,.665.608Z" transform="translate(-0.563 -0.563)" fill="#fff"/>
</svg>
