<svg xmlns="http://www.w3.org/2000/svg" width="18.063" height="20.772" viewBox="0 0 18.063 20.772">
  <path id="noti_icon" d="M12.57,2h-.076c-3.58,0-6.862,2.539-7.18,5.9-.021.24-.036.486-.045.751l-.013.619,0,.555.016-.063a3.967,3.967,0,0,1-.986,1.891l-.071.09A4.173,4.173,0,0,0,3.5,13.865v.247a4.168,4.168,0,0,0,.984,2.763,5.225,5.225,0,0,0,3.279,1.583,45.194,45.194,0,0,0,9.535,0,5.145,5.145,0,0,0,3.237-1.545,4.18,4.18,0,0,0,1.026-2.593V13.9a4.1,4.1,0,0,0-.713-2.154l-.066-.082-.16-.184a4.048,4.048,0,0,1-.772-1.487L19.8,9.8l-.01-.2c0-.092,0-.193,0-.32v-.7c0-.267-.011-.458-.029-.672C19.431,4.537,16.148,2,12.57,2Zm-.076,1.449h.076c2.866,0,5.481,2.021,5.732,4.589.015.169.021.329.023.568l0,.94c0,.15.009.275.02.416l.014.1.069.286a5.491,5.491,0,0,0,1.076,2.074l.147.168-.016-.026a2.645,2.645,0,0,1,.462,1.374v.17a2.717,2.717,0,0,1-.652,1.842,3.665,3.665,0,0,1-2.292,1.07,43.768,43.768,0,0,1-9.244,0A3.737,3.737,0,0,1,5.576,15.91a2.719,2.719,0,0,1-.61-1.782V13.9l.019-.2a2.731,2.731,0,0,1,.333-.975l.089-.144a5.408,5.408,0,0,0,1.3-2.528l.015-.147.007-.955.017-.484c.008-.153.018-.3.03-.439C7.015,5.47,9.627,3.449,12.494,3.449ZM5.406,12.584l-.048.052.052-.059Zm9.9,7.79a.738.738,0,0,0-1.03.11,2.079,2.079,0,0,1-.379.361,2.31,2.31,0,0,1-1.675.462,2.262,2.262,0,0,1-1.5-.821.738.738,0,0,0-1.029-.115.719.719,0,0,0-.116,1.018,3.731,3.731,0,0,0,2.476,1.357A3.776,3.776,0,0,0,14.781,22a3.5,3.5,0,0,0,.633-.606A.719.719,0,0,0,15.3,20.374Z" transform="translate(-3.5 -2)" fill="#6b778c" fill-rule="evenodd"/>
</svg>
