<svg id="qr_code" xmlns="http://www.w3.org/2000/svg" width="23.084" height="23.488" viewBox="0 0 23.084 23.488">
  <path id="Path_718" data-name="Path 718" d="M435.07,16h-2.631a.439.439,0,0,0,0,.877h2.193V19.07a.439.439,0,1,0,.877,0V16.439A.439.439,0,0,0,435.07,16Z" transform="translate(-412.424 -16)" fill="#fff"/>
  <path id="Path_719" data-name="Path 719" d="M16.439,19.508a.439.439,0,0,0,.439-.439V16.877H19.07a.439.439,0,1,0,0-.877H16.439a.439.439,0,0,0-.439.439V19.07A.439.439,0,0,0,16.439,19.508Z" transform="translate(-16 -16)" fill="#fff"/>
  <path id="Path_720" data-name="Path 720" d="M435.07,432a.438.438,0,0,0-.439.438v2.193h-2.193a.439.439,0,0,0,0,.877h2.631a.439.439,0,0,0,.438-.438v-2.631A.438.438,0,0,0,435.07,432Z" transform="translate(-412.424 -412.02)" fill="#fff"/>
  <path id="Path_721" data-name="Path 721" d="M16.439,435.508H19.07a.439.439,0,1,0,0-.877H16.877v-2.193a.439.439,0,0,0-.877,0v2.631A.439.439,0,0,0,16.439,435.508Z" transform="translate(-16 -412.02)" fill="#fff"/>
  <path id="Path_722" data-name="Path 722" d="M48,48.439v7.894a.439.439,0,0,0,.439.439h7.894a.439.439,0,0,0,.439-.439V48.439A.439.439,0,0,0,56.332,48H48.439A.439.439,0,0,0,48,48.439Zm.877.439h7.017v7.017H48.877Z" transform="translate(-46.246 -46.246)" fill="#fff"/>
  <path id="Path_723" data-name="Path 723" d="M84.824,80H80.439a.439.439,0,0,0-.439.439v4.385a.439.439,0,0,0,.439.439h4.385a.439.439,0,0,0,.439-.439V80.439A.439.439,0,0,0,84.824,80Zm-.439,4.385H80.877V80.877h3.508Z" transform="translate(-76.492 -76.492)" fill="#fff"/>
  <path id="Path_724" data-name="Path 724" d="M84.824,336H80.439a.439.439,0,0,0-.439.439v4.385a.439.439,0,0,0,.439.439h4.385a.439.439,0,0,0,.439-.439v-4.385A.439.439,0,0,0,84.824,336Zm-.439,4.385H80.877v-3.508h3.508Z" transform="translate(-76.492 -321.283)" fill="#fff"/>
  <path id="Path_725" data-name="Path 725" d="M340.824,80h-4.385a.439.439,0,0,0-.439.439v4.385a.439.439,0,0,0,.439.439h4.385a.439.439,0,0,0,.439-.439V80.439A.439.439,0,0,0,340.824,80Zm-.439,4.385h-3.508V80.877h3.508Z" transform="translate(-321.686 -76.492)" fill="#fff"/>
  <path id="Path_726" data-name="Path 726" d="M304.439,56.743h7.894a.439.439,0,0,0,.439-.439V48.439a.439.439,0,0,0-.439-.439h-7.894a.439.439,0,0,0-.439.439V56.3A.439.439,0,0,0,304.439,56.743Zm.439-7.866h7.017v6.989h-7.017Z" transform="translate(-291.44 -46.246)" fill="#fff"/>
  <path id="Path_727" data-name="Path 727" d="M48,312.332a.439.439,0,0,0,.439.439h7.894a.439.439,0,0,0,.439-.439v-7.894a.439.439,0,0,0-.439-.439H48.439a.439.439,0,0,0-.439.439Zm.877-7.455h7.017v7.017H48.877Z" transform="translate(-46.246 -291.037)" fill="#fff"/>
  <path id="Path_742" data-name="Path 742" d="M386.193,368h-1.754a.439.439,0,1,0,0,.877h1.316v.439a.439.439,0,0,0,.877,0v-.877A.439.439,0,0,0,386.193,368Z" transform="translate(-367.055 -351.529)" fill="#fff"/>
  <circle id="Ellipse_109" data-name="Ellipse 109" cx="0.551" cy="0.551" r="0.551" transform="translate(19.021 19.223)" fill="#fff"/>
  <ellipse id="Ellipse_110" data-name="Ellipse 110" cy="0.551" ry="0.551" transform="translate(15.715 15.917)" fill="#fff"/>
  <path id="Path_743" data-name="Path 743" d="M354.193,400.877h-1.316v-.439a.439.439,0,1,0-.877,0v.877a.438.438,0,0,0,.439.438h1.754a.439.439,0,1,0,0-.877Z" transform="translate(-336.809 -381.774)" fill="#fff"/>
  <path id="Path_747" data-name="Path 747" d="M320.439,343.017h7.017a.439.439,0,0,0,.439-.439v-6.14a.439.439,0,0,0-.439-.439h-7.017a.439.439,0,0,0-.439.439v6.14A.439.439,0,0,0,320.439,343.017Zm.439-6.14h6.14v5.262h-6.14Z" transform="translate(-306.563 -321.283)" fill="#fff"/>
</svg>
