<svg xmlns="http://www.w3.org/2000/svg" width="15.617" height="19.335" viewBox="0 0 15.617 19.335">
  <path id="user_icon" d="M11.813,2A5.158,5.158,0,1,0,17,7.158,5.172,5.172,0,0,0,11.813,2Zm0,1.4A3.758,3.758,0,1,1,8.034,7.158,3.768,3.768,0,0,1,11.813,3.4Zm-2.122,11a16.467,16.467,0,0,0-2.283.32A4.247,4.247,0,0,0,4.28,16.6,2.764,2.764,0,0,0,4,17.819a2.81,2.81,0,0,0,.274,1.211,3.9,3.9,0,0,0,2.9,1.839l.25.052a15.135,15.135,0,0,0,2.276.327,2.237,2.237,0,0,0,.394.046l.141.005c.072,0,.155,0,.277,0a24.751,24.751,0,0,0,3.408-.054,15.423,15.423,0,0,0,1.835-.236l.456-.094c1.506-.294,2.633-.854,3.127-1.885a2.8,2.8,0,0,0,0-2.42c-.493-1.029-1.606-1.584-3.138-1.9a16.668,16.668,0,0,0-1.828-.281l-.45-.038A24.324,24.324,0,0,0,9.69,14.395ZM13.8,15.789h.012a15.291,15.291,0,0,1,2.1.294c1.138.232,1.911.617,2.156,1.128a1.411,1.411,0,0,1,0,1.218A2.735,2.735,0,0,1,16.146,19.5l-.22.046a14.207,14.207,0,0,1-2.11.3,23.71,23.71,0,0,1-3.263.051l-.384-.007a1.91,1.91,0,0,1-.28-.032,15.289,15.289,0,0,1-1.829-.241l-.344-.072c-1.142-.222-1.921-.608-2.174-1.126a1.414,1.414,0,0,1-.135-.607,1.365,1.365,0,0,1,.136-.6A3.161,3.161,0,0,1,7.7,16.085,15.158,15.158,0,0,1,9.8,15.79,22.963,22.963,0,0,1,13.8,15.789Z" transform="translate(-4 -2)" fill="#6b778c" fill-rule="evenodd"/>
</svg>
